<svg width="24" height="24" viewBox="0 0 24 24" fill="none" xmlns="http://www.w3.org/2000/svg">
<g id="Reddit" opacity="0.5">
<path id="Union" fill-rule="evenodd" clip-rule="evenodd" d="M21.6294 14.1592C21.6294 13.9065 21.6129 13.6537 21.5798 13.4179C21.8993 13.2718 22.1836 13.0562 22.4129 12.7863C22.6422 12.5165 22.8109 12.1987 22.9072 11.8554C23.0036 11.512 23.0252 11.1513 22.9706 10.7985C22.916 10.4458 22.7865 10.1094 22.5912 9.81301C22.3959 9.51662 22.1394 9.26734 21.8398 9.08261C21.5402 8.89789 21.2046 8.78218 20.8566 8.74358C20.5085 8.70497 20.1564 8.74441 19.8249 8.85914C19.4933 8.97386 19.1904 9.1611 18.9372 9.40775C17.2855 8.1946 15.0227 7.40269 12.4956 7.31845L13.5857 2.06149L17.1699 2.83656C17.2194 3.76326 17.9627 4.50463 18.8876 4.50463C19.1941 4.50545 19.4952 4.42261 19.7597 4.26469C20.0242 4.10678 20.2425 3.87955 20.3919 3.60656C20.5413 3.33357 20.6164 3.02478 20.6094 2.71221C20.6024 2.39964 20.5135 2.09468 20.352 1.82895C20.1905 1.56323 19.9623 1.34642 19.691 1.20102C19.4196 1.05562 19.1151 0.986923 18.809 1.00205C18.5029 1.01718 18.2063 1.11559 17.95 1.28707C17.6937 1.45854 17.4871 1.69684 17.3516 1.97725L13.3545 1.10109C13.2389 1.08424 13.1233 1.10109 13.0242 1.16849C12.9251 1.21903 12.859 1.32013 12.8425 1.43807L11.6203 7.31845C9.06018 7.40269 6.74784 8.17775 5.07965 9.40775C4.74031 9.07069 4.31089 8.84344 3.84535 8.75454C3.3798 8.66564 2.89889 8.71905 2.46301 8.90808C2.02713 9.0971 1.65572 9.4133 1.39543 9.81697C1.13514 10.2206 0.997584 10.6938 1.00003 11.1769C1.00003 12.171 1.57812 13.0303 2.42047 13.4179C2.38743 13.6537 2.37092 13.9065 2.37092 14.1592C2.37092 17.9334 6.68177 21 12.0001 21C17.3185 21 21.6294 17.9334 21.6294 14.1592ZM8.2177 11.1769C9.15915 11.1769 9.93543 11.9688 9.93543 12.9292C9.93543 13.394 9.75445 13.8397 9.43232 14.1683C9.11018 14.4969 8.67327 14.6815 8.2177 14.6815C7.76212 14.6815 7.32521 14.4969 7.00307 14.1683C6.68094 13.8397 6.49996 13.394 6.49996 12.9292C6.49996 11.9688 7.27624 11.1769 8.2177 11.1769ZM12 17.9503C13.1232 17.9503 14.7088 17.6807 15.452 16.9225C15.6337 16.754 15.9145 16.754 16.0796 16.9225C16.1226 16.9635 16.1569 17.013 16.1804 17.0681C16.2038 17.1232 16.2159 17.1826 16.2159 17.2426C16.2159 17.3027 16.2038 17.3621 16.1804 17.4171C16.1569 17.4722 16.1226 17.5218 16.0796 17.5628C14.907 18.7591 12.6607 18.8602 12 18.8602C11.3393 18.8602 9.09308 18.7591 7.92039 17.5628C7.87738 17.5218 7.84309 17.4722 7.81965 17.4171C7.7962 17.3621 7.7841 17.3027 7.7841 17.2426C7.7841 17.1826 7.7962 17.1232 7.81965 17.0681C7.84309 17.013 7.87738 16.9635 7.92039 16.9225C7.96057 16.8786 8.00916 16.8436 8.06314 16.8197C8.11713 16.7958 8.17536 16.7835 8.23421 16.7835C8.29307 16.7835 8.35129 16.7958 8.40528 16.8197C8.45926 16.8436 8.50785 16.8786 8.54803 16.9225C9.29128 17.6807 10.8769 17.9503 12 17.9503ZM14.0646 12.9292C14.0646 11.9688 14.8409 11.1769 15.7823 11.1769C16.7403 11.1769 17.5001 11.9688 17.5001 12.9292C17.5001 13.8896 16.7238 14.6815 15.7823 14.6815C14.8409 14.6815 14.0646 13.8896 14.0646 12.9292Z" fill="white"/>
</g>
</svg>
