<svg width="24" height="24" viewBox="0 0 24 24" fill="none" xmlns="http://www.w3.org/2000/svg">
<g id="Hamburga">
<g id="Vector">
<path d="M2 4.5C2 3.67157 2.67157 3 3.5 3H20.5C21.3284 3 22 3.67157 22 4.5C22 5.32843 21.3284 6 20.5 6H3.5C2.67157 6 2 5.32843 2 4.5Z" fill="white"/>
<path d="M2 11.5C2 10.6716 2.67157 10 3.5 10H20.5C21.3284 10 22 10.6716 22 11.5C22 12.3284 21.3284 13 20.5 13H3.5C2.67157 13 2 12.3284 2 11.5Z" fill="white"/>
<path d="M2 18.5C2 17.6716 2.67157 17 3.5 17H20.5C21.3284 17 22 17.6716 22 18.5C22 19.3284 21.3284 20 20.5 20H3.5C2.67157 20 2 19.3284 2 18.5Z" fill="white"/>
</g>
</g>
</svg>
