<svg width="126" height="20" viewBox="0 0 126 20" fill="none" xmlns="http://www.w3.org/2000/svg">
<path d="M58.6552 4.9697C61.273 4.9697 63.4441 6.32627 64.2749 7.05634L62.208 9.4285C61.7514 9.02725 60.2858 8.12121 58.6552 8.12121C57.6115 8.12121 57.1129 8.40295 56.8953 8.59849C56.6759 8.79567 56.6035 9.02501 56.6035 9.21212C56.6035 9.46761 56.6638 9.66856 56.8751 9.88352C57.1312 10.1441 57.7182 10.5292 59.0079 10.8281C60.5088 11.176 61.8572 11.6355 62.8502 12.3774C63.9456 13.1958 64.569 14.3327 64.569 15.7576C64.569 17.0039 63.9944 18.1429 62.9185 18.9171C61.8901 19.6572 60.5045 20 58.8966 20C55.8174 20 53.5057 18.2502 52.6552 17.2893L55.0001 15.1955C55.437 15.6892 56.9552 16.8485 58.8966 16.8485C60.1055 16.8485 60.7716 16.5852 61.0907 16.3556C61.3623 16.1602 61.4311 15.9657 61.4311 15.7576C61.4311 15.394 61.3304 15.1694 60.9776 14.9058C60.5223 14.5656 59.6981 14.2226 58.3026 13.8991C56.696 13.5268 55.4723 12.9422 54.6423 12.098C53.7674 11.2081 53.4656 10.1687 53.4656 9.21212C53.4656 8.18712 53.876 7.08311 54.8031 6.25C55.732 5.41523 57.0438 4.9697 58.6552 4.9697Z" fill="white"/>
<path d="M3.32021 16.0805L8.24604 10.5545L13.1719 16.081V5.16809H16.4916V19.8788H12.597L12.5249 19.7973L8.24556 14.9536L3.96673 19.7973L3.8946 19.8788H0V5.16809H3.32021V16.0805Z" fill="white"/>
<path d="M22.495 19.8788H19.0105V5.16809H22.495V19.8788Z" fill="white"/>
<path d="M31.2587 5.16809C34.7052 5.16809 37.5034 7.94525 37.5034 11.3764V19.8788H34.25V11.3764C34.25 9.73864 32.9131 8.40625 31.2587 8.40625H28.2678V19.8788H25.0139V5.16809H31.2587Z" fill="white"/>
<path fill-rule="evenodd" clip-rule="evenodd" d="M51.511 19.8788H46.2671C42.2632 19.8787 39.022 16.5832 39.0219 12.5237C39.0219 8.46403 42.2631 5.16813 46.2671 5.16809H48.0265V0H51.511V19.8788ZM46.2671 8.70123C44.1926 8.70131 42.5064 10.4103 42.5064 12.5237C42.5065 14.637 44.1927 16.3456 46.2671 16.3456H48.0265V8.70123H46.2671Z" fill="white"/>
<path d="M72.7585 5.16809C74.7333 5.16809 76.5212 5.96672 77.8312 7.25663L78.0104 7.43324L75.6739 9.64867L75.5084 9.49479C74.7828 8.82038 73.8192 8.40625 72.7585 8.40625C70.5129 8.40637 68.6895 10.2482 68.6895 12.5237C68.6896 14.799 70.5129 16.6405 72.7585 16.6406C73.8816 16.6406 74.8985 16.1806 75.6357 15.4356L75.8073 15.2623L78.0722 17.553L77.9034 17.724C76.5873 19.0549 74.7676 19.8788 72.7585 19.8788C68.7393 19.8787 65.4842 16.5839 65.4841 12.5237C65.4841 8.46332 68.7392 5.16821 72.7585 5.16809Z" fill="white"/>
<path d="M85.471 5.16809C87.2428 5.16809 88.8281 5.97312 89.921 7.23911L90.0657 7.40672L87.8466 9.71449L87.6755 9.49669C87.1517 8.82952 86.3578 8.40625 85.471 8.40625H82.623V19.8788H79.4917V5.16809H85.471Z" fill="white"/>
<path d="M94.9829 19.8788H91.4984V5.16809H94.9829V19.8788Z" fill="white"/>
<path fill-rule="evenodd" clip-rule="evenodd" d="M100.986 5.16809H102.746C106.75 5.16814 109.991 8.46404 109.991 12.5237C109.991 16.5198 106.851 19.7756 102.933 19.8764L102.746 19.8788H97.5018V0H100.986V5.16809ZM100.986 16.3456H102.746C104.821 16.3455 106.507 14.6369 106.507 12.5237C106.507 10.4103 104.821 8.70131 102.746 8.70123H100.986V16.3456Z" fill="white"/>
<path fill-rule="evenodd" clip-rule="evenodd" d="M113.493 7.30114C116.251 4.43428 120.84 4.46517 123.742 7.34612C124.152 7.75274 124.5 8.19658 124.797 8.66146L124.9 8.82292L117.592 16.4195C119.017 16.9039 120.619 16.5818 121.704 15.4527C122.47 14.6562 122.831 13.6075 122.801 12.5511L122.794 12.3007L125.99 12.3172L125.997 12.5511C126.051 14.4319 125.4 16.3135 124.022 17.7462C121.264 20.6125 116.675 20.5816 113.774 17.7012C110.874 14.8216 110.737 10.1658 113.493 7.30114ZM120.383 8.81581C118.856 8.08198 117.016 8.34223 115.811 9.59422C114.607 10.8461 114.392 12.7224 115.148 14.2585L120.383 8.81581Z" fill="white"/>
<path d="M22.495 3.0483H19.0105V0H22.495V3.0483Z" fill="white"/>
<path d="M94.9829 3.0483H91.4984V0H94.9829V3.0483Z" fill="white"/>
</svg>
